<svg width="130" height="87" viewBox="0 0 130 87" fill="none" xmlns="http://www.w3.org/2000/svg">
<g id="IMAGE" clip-path="url(#clip0_1_74)">
<path id="Vector" d="M130 0.00244141V86.7883H43.5469V0.00244244L130 0.00244141Z" fill="#B961CD"/>
<path id="Vector_2" d="M43.5456 43.3955V86.7883H0.319092C0.319092 62.8319 19.681 43.3955 43.5456 43.3955Z" fill="#134A45"/>
<path id="Vector_3" d="M86.7728 86.788H43.5465V43.395C67.411 43.395 86.7728 62.8314 86.7728 86.788Z" fill="#CBD0D5"/>
<path id="Vector_4" d="M86.7728 86.7883C86.7735 82.589 86.1668 78.4118 84.9723 74.3877V86.7883H86.7728Z" fill="#746F6B"/>
<path id="Vector_5" d="M84.3776 86.7884V72.55C83.8827 71.1177 83.3131 69.7124 82.6713 68.3394V86.7884H84.3776Z" fill="#746F6B"/>
<path id="Vector_6" d="M81.9791 86.7881V66.9358C81.4748 65.9548 80.941 64.9946 80.3695 64.0591V86.7881H81.9791Z" fill="#746F6B"/>
<path id="Vector_7" d="M79.5838 86.788V62.8316C79.0977 62.0963 78.5916 61.3783 78.0665 60.6777V86.788H79.5838Z" fill="#746F6B"/>
<path id="Vector_8" d="M77.1867 86.7884V59.5503C76.7276 58.9793 76.2541 58.4196 75.7661 57.8711V86.7884H77.1867Z" fill="#746F6B"/>
<path id="Vector_9" d="M74.7915 86.7882V56.8201C74.3594 56.3681 73.9154 55.916 73.4651 55.4844V86.7882H74.7915Z" fill="#746F6B"/>
<path id="Vector_10" d="M72.3937 86.788V54.4694C71.9905 54.1055 71.581 53.7507 71.1647 53.4004V86.788H72.3937Z" fill="#746F6B"/>
<path id="Vector_11" d="M69.9972 86.788V52.4806C69.6235 52.1883 69.2442 51.9027 68.8605 51.624V86.788H69.9972Z" fill="#746F6B"/>
<path id="Vector_12" d="M67.6001 86.7881V50.7336C67.2603 50.5076 66.9092 50.2816 66.5601 50.0557V86.7881H67.6001Z" fill="#746F6B"/>
<path id="Vector_13" d="M65.2047 86.7883V49.2422C64.8901 49.0569 64.5792 48.8716 64.2595 48.6953V86.7883H65.2047Z" fill="#746F6B"/>
<path id="Vector_14" d="M62.8088 86.7881V47.9425C62.5252 47.8001 62.2438 47.66 61.9579 47.5244V86.7881H62.8088Z" fill="#746F6B"/>
<path id="Vector_15" d="M60.4119 86.7884V46.824C60.1643 46.7178 59.9076 46.6229 59.6577 46.5234V86.7884H60.4119Z" fill="#746F6B"/>
<path id="Vector_16" d="M58.0161 86.7882V45.895C57.7909 45.8158 57.5658 45.7458 57.3541 45.6689V86.7882H58.0161Z" fill="#746F6B"/>
<path id="Vector_17" d="M55.6181 86.7881V45.1241C55.4312 45.0677 55.2421 45.0157 55.053 44.9614V86.7881H55.6181Z" fill="#746F6B"/>
<path id="Vector_18" d="M53.2274 86.7883V44.5006C53.0698 44.4644 52.9145 44.426 52.7568 44.3921V86.7883H53.2274Z" fill="#746F6B"/>
<path id="Vector_19" d="M50.8254 86.7883V44.0192C50.7015 43.9988 50.5777 43.974 50.4517 43.9536V86.7883H50.8254Z" fill="#746F6B"/>
<path id="Vector_20" d="M48.4299 86.7881V43.6778C48.3353 43.6778 48.243 43.6529 48.1484 43.6416V86.7881H48.4299Z" fill="#746F6B"/>
<path id="Vector_21" d="M46.0226 86.788V43.4721C45.9618 43.4721 45.901 43.4608 45.838 43.4585V86.788H46.0226Z" fill="#746F6B"/>
<path id="Vector_22" d="M43.6362 86.7883V43.3955C43.6069 43.3955 43.5754 43.3955 43.5461 43.3955V86.7883H43.6362Z" fill="#746F6B"/>
<path id="Vector_23" d="M41.3314 86.788V43.4517C41.2684 43.4517 41.2076 43.4517 41.1445 43.4652V86.788H41.3314Z" fill="#746F6B"/>
<path id="Vector_24" d="M39.0232 86.7884V43.6216C38.9287 43.6216 38.8363 43.6464 38.744 43.6577V86.7884H39.0232Z" fill="#746F6B"/>
<path id="Vector_25" d="M36.7182 86.7881V43.9399C36.5921 43.9603 36.4682 43.9851 36.3422 44.0078V86.7881H36.7182Z" fill="#746F6B"/>
<path id="Vector_26" d="M34.4097 86.788V44.376C34.252 44.4099 34.0967 44.4483 33.9391 44.4845V86.788H34.4097Z" fill="#746F6B"/>
<path id="Vector_27" d="M32.1055 86.7881V44.9434C31.9164 44.9954 31.7273 45.0496 31.5404 45.1039V86.7881H32.1055Z" fill="#746F6B"/>
<path id="Vector_28" d="M29.7971 86.7881V45.6553C29.572 45.7276 29.3468 45.7999 29.1375 45.8813V86.7881H29.7971Z" fill="#746F6B"/>
<path id="Vector_29" d="M27.4918 86.788V46.5005C27.2397 46.6022 26.9852 46.6926 26.7354 46.7988V86.788H27.4918Z" fill="#746F6B"/>
<path id="Vector_30" d="M25.1841 86.7883V47.502C24.9004 47.6376 24.6167 47.7754 24.3353 47.9178V86.7883H25.1841Z" fill="#746F6B"/>
<path id="Vector_31" d="M22.879 86.7882V48.668C22.5594 48.8443 22.2486 49.0319 21.9335 49.2149V86.7882H22.879Z" fill="#746F6B"/>
<path id="Vector_32" d="M20.5818 86.7882V50.0376C20.2328 50.2636 19.8816 50.4896 19.5394 50.7156V86.7882H20.5818Z" fill="#746F6B"/>
<path id="Vector_33" d="M18.2658 86.788V51.5991C17.8831 51.8779 17.5078 52.1619 17.1401 52.4512V86.788H18.2658Z" fill="#746F6B"/>
<path id="Vector_34" d="M15.9595 86.7881V53.3823C15.5407 53.7304 15.1332 54.0897 14.7279 54.4536V86.7881H15.9595Z" fill="#746F6B"/>
<path id="Vector_35" d="M13.6528 86.7884V55.4619C13.2026 55.8958 12.7523 56.3388 12.3268 56.7931V86.7884H13.6528Z" fill="#746F6B"/>
<path id="Vector_36" d="M11.3517 86.7883V57.8462C10.8624 58.3931 10.3889 58.9529 9.93115 59.5254V86.7883H11.3517Z" fill="#746F6B"/>
<path id="Vector_37" d="M9.03951 86.7882V60.6553C8.51267 61.3559 8.00762 62.0724 7.52429 62.8046V86.7882H9.03951Z" fill="#746F6B"/>
<path id="Vector_38" d="M6.73392 86.7883V64.0435C6.15983 64.9765 5.62625 65.9373 5.12195 66.9157V86.7883H6.73392Z" fill="#746F6B"/>
<path id="Vector_39" d="M4.42696 86.7881V68.3188C3.78529 69.69 3.21639 71.094 2.72266 72.5251V86.7881H4.42696Z" fill="#746F6B"/>
<path id="Vector_40" d="M0.319092 86.7883H2.1202V74.3877C0.92525 78.4118 0.318553 82.589 0.319092 86.7883Z" fill="#746F6B"/>
<path id="Vector_41" d="M86.7729 0.00244141C86.7729 23.9589 67.411 43.3953 43.5464 43.3953C19.6817 43.3953 0.319825 23.9589 0.319824 0.00244244L86.7729 0.00244141Z" fill="#746F6B"/>
</g>
<defs>
<clipPath id="clip0_1_74">
<rect width="130" height="87" fill="white"/>
</clipPath>
</defs>
</svg>
