<svg width="54" height="54" viewBox="0 0 54 54" fill="none" xmlns="http://www.w3.org/2000/svg">
<g id="IMAGE" clip-path="url(#clip0_1_162)">
<path id="Vector" d="M53.3624 53.3011H26.8967V26.8354L53.3624 53.3011Z" fill="#CBD0D5"/>
<path id="Vector_2" d="M26.8999 26.8353C30.411 26.8353 33.7783 25.4406 36.2611 22.9578C38.7438 20.4751 40.1386 17.1077 40.1386 13.5966C40.1386 10.0855 38.7438 6.71818 36.2611 4.23544C33.7783 1.75269 30.411 0.35791 26.8999 0.35791C23.3888 0.35791 20.0214 1.75269 17.5387 4.23544C15.0559 6.71818 13.6611 10.0855 13.6611 13.5966C13.6611 17.1077 15.0559 20.4751 17.5387 22.9578C20.0214 25.4406 23.3888 26.8353 26.8999 26.8353Z" fill="#746F6B"/>
<path id="Vector_3" d="M21.6015 32.128H26.897V26.8354L21.6015 32.128Z" fill="#746F6B"/>
<path id="Vector_4" d="M26.8968 37.4209V42.7134H11.0162L16.3087 37.4209H26.8968Z" fill="#746F6B"/>
<path id="Vector_5" d="M26.8968 48.0083V53.3009H0.428207L5.72075 48.0083H26.8968Z" fill="#746F6B"/>
</g>
<defs>
<clipPath id="clip0_1_162">
<rect width="54" height="54" fill="white"/>
</clipPath>
</defs>
</svg>
