<svg width="200" height="200" viewBox="0 0 200 200" fill="none" xmlns="http://www.w3.org/2000/svg">
<g id="IMAGE" clip-path="url(#clip0_1_51)">
<path id="Vector" d="M99.6962 99.8041V0.187988C154.713 0.187988 199.312 44.7876 199.312 99.8041C199.312 154.821 154.713 199.42 99.6962 199.42C44.6797 199.42 0.0800781 154.821 0.0800781 99.8041C0.0800781 85.1405 3.31737 70.6577 9.56084 57.3896L99.6962 99.8041Z" fill="#134A45"/>
<path id="Vector_2" d="M99.6959 99.8043L9.56055 57.3899C25.9906 22.4742 61.1077 0.188232 99.6959 0.188232V99.8043Z" fill="#CBD0D5"/>
<path id="Vector_3" d="M99.6964 163.34C134.786 163.34 163.232 134.894 163.232 99.8043C163.232 64.7148 134.786 36.269 99.6964 36.269C64.6068 36.269 36.1611 64.7148 36.1611 99.8043C36.1611 134.894 64.6068 163.34 99.6964 163.34Z" fill="#96C9E9"/>
</g>
<defs>
<clipPath id="clip0_1_51">
<rect width="200" height="200" fill="white"/>
</clipPath>
</defs>
</svg>
