<svg width="23" height="23" viewBox="0 0 23 23" fill="none" xmlns="http://www.w3.org/2000/svg">
<g id="IMAGE" clip-path="url(#clip0_1_253)">
<path id="Vector" d="M17.6429 0.439453H4.84416C2.32008 0.439453 0.273193 2.48634 0.273193 5.01043V17.8092C0.273193 20.3333 2.32008 22.3801 4.84416 22.3801H17.6429C20.168 22.3801 22.2139 20.3333 22.2139 17.8092V5.01043C22.2139 2.48634 20.168 0.439453 17.6429 0.439453ZM7.58674 17.8092H4.84416V7.75301H7.58674V17.8092ZM6.21546 6.59381C5.33234 6.59381 4.61561 5.8716 4.61561 4.98118C4.61561 4.09075 5.33234 3.36854 6.21546 3.36854C7.09856 3.36854 7.8153 4.09075 7.8153 4.98118C7.8153 5.8716 7.09948 6.59381 6.21546 6.59381ZM18.5571 17.8092H15.8146V12.686C15.8146 9.60702 12.1577 9.84009 12.1577 12.686V17.8092H9.4152V7.75301H12.1577V9.36655C13.434 7.00245 18.5571 6.82785 18.5571 11.6301V17.8092Z" fill="#CBD0D5"/>
</g>
<defs>
<clipPath id="clip0_1_253">
<rect width="23" height="23" fill="white"/>
</clipPath>
</defs>
</svg>
