<svg width="200" height="200" viewBox="0 0 200 200" fill="none" xmlns="http://www.w3.org/2000/svg">
<g id="IMAGE" clip-path="url(#clip0_1_61)">
<path id="Vector" d="M100.179 99.6649V0.0517578C155.194 0.0517578 199.792 44.6501 199.792 99.6649C199.792 154.68 155.194 199.278 100.179 199.278C49.9916 199.278 7.64173 161.941 1.35156 112.15L100.179 99.6649Z" fill="#508883"/>
<path id="Vector_2" d="M100.179 99.6649L1.3518 112.15C-5.54339 57.5687 33.1136 7.73242 87.6946 0.837237C91.8356 0.314101 96.0055 0.0517578 100.179 0.0517578V99.6649Z" fill="#96C9E9"/>
<path id="Vector_3" d="M100.174 163.2C135.264 163.2 163.709 134.755 163.709 99.6652C163.709 64.5756 135.264 36.1299 100.174 36.1299C65.0844 36.1299 36.6387 64.5756 36.6387 99.6652C36.6387 134.755 65.0844 163.2 100.174 163.2Z" fill="#134A45"/>
</g>
<defs>
<clipPath id="clip0_1_61">
<rect width="200" height="200" fill="white"/>
</clipPath>
</defs>
</svg>
