<svg width="26" height="23" viewBox="0 0 26 23" fill="none" xmlns="http://www.w3.org/2000/svg">
<g id="IMAGE" clip-path="url(#clip0_1_255)">
<path id="Vector" d="M26 3.23203C25.0434 3.66137 24.0153 3.95051 22.9363 4.08084C24.0381 3.41384 24.8842 2.35694 25.2818 1.09742C24.2515 1.71513 23.1097 2.16418 21.8942 2.40622C20.9224 1.35808 19.5347 0.703125 18.0007 0.703125C14.5567 0.703125 12.0261 3.95161 12.8039 7.32384C8.372 7.09932 4.44167 4.95265 1.81025 1.68994C0.41275 4.1137 1.0855 7.28441 3.46017 8.89003C2.587 8.86156 1.76367 8.61951 1.04542 8.21537C0.986917 10.7136 2.75817 13.0509 5.3235 13.5711C4.57275 13.777 3.7505 13.8252 2.91417 13.6631C3.59233 15.8054 5.56183 17.3639 7.8975 17.4078C5.655 19.1853 2.82967 19.9794 0 19.642C2.36058 21.1721 5.16533 22.0647 8.177 22.0647C18.0808 22.0647 23.6763 13.6084 23.3383 6.0238C24.3804 5.26261 25.285 4.31303 26 3.23203Z" fill="#CBD0D5"/>
</g>
<defs>
<clipPath id="clip0_1_255">
<rect width="26" height="23" fill="white"/>
</clipPath>
</defs>
</svg>
